<svg id="visual" viewBox="0 0 900 600" width="900" height="600" xmlns="http://www.w3.org/2000/svg" xmlns:xlink="http://www.w3.org/1999/xlink" version="1.1"><rect x="0" y="0" width="900" height="600" fill="#001220"></rect><defs><linearGradient id="grad1_0" x1="33.3%" y1="0%" x2="100%" y2="100%"><stop offset="20%" stop-color="#001220" stop-opacity="1"></stop><stop offset="80%" stop-color="#001220" stop-opacity="1"></stop></linearGradient></defs><defs><linearGradient id="grad2_0" x1="0%" y1="0%" x2="66.7%" y2="100%"><stop offset="20%" stop-color="#001220" stop-opacity="1"></stop><stop offset="80%" stop-color="#001220" stop-opacity="1"></stop></linearGradient></defs><g transform="translate(900, 0)"><path d="M0 432.7C-75.7 441.2 -151.4 449.7 -160.3 387.1C-169.3 324.5 -111.6 190.8 -153.4 153.4C-195.3 116.1 -336.6 175.1 -399.7 165.6C-462.9 156.1 -447.8 78 -432.7 0L0 0Z" fill="#FBAE3C"></path></g><g transform="translate(0, 600)"><path d="M0 -432.7C43.1 -393.6 86.2 -354.6 140.4 -339.1C194.7 -323.6 260 -331.6 305.9 -305.9C351.9 -280.2 378.5 -220.8 396.3 -164.2C414.2 -107.6 423.5 -53.8 432.7 0L0 0Z" fill="#FBAE3C"></path></g></svg>